<svg xmlns="http://www.w3.org/2000/svg" xmlns:xlink="http://www.w3.org/1999/xlink" width="59" height="58" viewBox="0 0 59 58"><defs><path id="pnzfa" d="M45.061 103.388c-7.215-.01-13.993-2.878-19.087-8.076-5.143-5.246-7.899-12.225-7.762-19.65.275-14.86 12.469-26.95 27.182-26.95l.521.006c15.11.284 27.264 12.887 27.094 28.092-.952 15.432-12.686 26.578-27.903 26.578z"/><path id="pnzfb" d="M45.393 50.213c.165 0 .33 0 .494.004 14.313.27 25.783 12.129 25.622 26.577-.885 14.295-11.61 25.094-26.402 25.094h-.044c-13.948-.02-25.623-11.554-25.35-26.197.26-14.098 11.593-25.478 25.68-25.478zm0-3c-7.597 0-14.75 2.957-20.142 8.327-5.365 5.342-8.398 12.479-8.539 20.095-.145 7.83 2.764 15.192 8.191 20.728 5.378 5.487 12.536 8.514 20.156 8.525 16.081 0 28.444-11.737 29.444-27.91l.005-.075.001-.075c.18-16.027-12.636-29.31-28.565-29.61a25.361 25.361 0 0 0-.55-.005z"/><path id="pnzfc" d="M45.29 97.691c-5.064.391-9.755-1.399-13.934-4.808-1.099-.895-1.982-1.878-1.805-3.3.465-3.736-1.197-6.917-2.523-10.17-.73-1.788-.58-3.578-.48-5.389.025-.462.27-1.2.594-1.317 4.805-1.73 4.105-6.413 5.428-9.998.173-.47.178-1.006.365-1.469.473-1.17 1.148-2.207 2.56-2.292 1.267-.076 2.297.696 2.634 1.735.94 2.898 3.1 3.076 5.572 2.955 1.82-.089 3.652-.069 5.475-.005 2.145.076 3.749-.667 4.654-2.696.429-.964.968-1.836 2.242-1.638 1.199.186 2.01.87 2.482 1.994 1.066 2.546 1.416 5.272 2.032 7.932.33 1.43.768 2.894 2.602 2.854 2.924-.065 3.755 1.563 3.426 4.082-.675 5.151-2.909 9.98-5.167 14.368-2.402 4.674-7.734 6.911-13.351 7.157-.81.035-1.622.005-2.805.005z"/><path id="pnzfd" d="M35.796 73.25c1.543.211 3.362.365 5.14.725 4.243.858 8.434.75 12.649-.217 2.895-.665 5.819-.523 8.744.02 2.516.467 2.999 1.868 1.873 3.915-.65 1.179-1.233 2.303-1.221 3.68.023 2.911-1.941 4.126-4.351 4.648-4.37.947-7.575-.876-9.31-5.055-.521-1.257-1.146-2.481-2.704-2.526-1.637-.047-2.102 1.223-2.591 2.519-1.635 4.332-5.91 6.379-10.283 4.905-2.022-.682-3.518-1.991-3.965-4.216-.1-.495-.287-1.01-.234-1.493.208-1.907-2.331-3.793-.685-5.406 1.688-1.656 4.363-1.195 6.938-1.5z"/></defs><g><g transform="translate(-16 -47)"><use fill="#e8e8e8" xlink:href="#pnzfa"/></g><g transform="translate(-16 -47)"><use fill="#fff" xlink:href="#pnzfb"/></g><g transform="translate(-16 -47)"><use fill="#fefefe" xlink:href="#pnzfc"/></g><g transform="translate(-16 -47)"><use fill="#e8e8e8" xlink:href="#pnzfd"/></g></g></svg>