<svg xmlns="http://www.w3.org/2000/svg" xmlns:xlink="http://www.w3.org/1999/xlink" width="194" height="61" viewBox="0 0 194 61"><defs><path id="wozva" d="M113 353.045c.285-1.612.453-3.243.884-4.83 1.72-6.329 5.22-11.337 11.008-14.562 3.794-2.114 7.917-2.758 12.225-2.36 2.341.217 4.571.791 6.654 1.89 2.042 1.078 3.626 2.622 4.725 4.696.16-.088.07-.25.082-.369.017-.15.005-.303-.004-.455-.076-1.26.237-2.443.664-3.619.497-1.367 1.448-2.219 2.785-2.684 2.228-.774 4.487-.927 6.765-.246 1.837.548 3.135 1.67 3.687 3.57.602 2.075.98 4.171.741 6.344-.039.35-.019.706-.019 1.06-.005 10.603-.009 21.205-.01 31.81 0 1.726-.343 3.367-1.298 4.83-1.125 1.722-2.846 2.444-4.803 2.647-1.464.152-2.919-.014-4.356-.357-2.569-.613-3.792-2.667-4.13-5.535-.064-.547-.009-1.108-.009-1.657-.083-.008-.153-.029-.163-.012-2.359 3.702-5.872 5.675-10.038 6.593-6.166 1.36-11.818.17-16.723-3.838-4.263-3.483-6.723-8.113-7.93-13.444-.335-1.477-.482-2.983-.738-4.472zm15.312 2.863c-.006 1.148.01 2.104.17 3.056.39 2.298 1.2 4.415 2.972 5.985 4.225 3.744 10.596 2.254 12.711-2.978 1.571-3.887 1.445-7.852.104-11.769-.76-2.22-2.383-3.637-4.659-4.275-1.184-.333-2.396-.329-3.607-.277-3.646.158-6.407 2.474-7.216 6.022-.332 1.457-.539 2.926-.475 4.236z"/><path id="wozvb" d="M190.281 329.558c1.408.28 2.845.38 4.245.724 3.52.86 6.737 2.296 9.33 4.905 1.146 1.155 2.064 2.484 2.684 4 .868 2.122.393 3.952-1.446 5.289-1.285.935-2.756 1.494-4.319 1.742-1.145.18-2.258 0-3.29-.598a27.59 27.59 0 0 1-2.722-1.785c-2.818-2.106-5.924-2.834-9.366-1.986-.57.14-1.103.368-1.595.682-1.598 1.019-1.68 3.052-.16 4.192.817.612 1.757.989 2.723 1.299 3.15 1.012 6.306 2 9.444 3.042 3.514 1.166 6.74 2.822 9.365 5.525 5.685 5.858 4.9 14.72-1.734 19.48-3.497 2.51-7.465 3.763-11.652 4.387-4.884.729-9.719.437-14.458-1.015-3.434-1.052-6.564-2.644-8.99-5.37-1.56-1.755-2.717-3.733-2.618-6.19.085-2.1 1.012-3.722 2.958-4.667.983-.477 2.015-.815 3.106-.927 1.901-.192 3.374.67 4.638 1.97 1.146 1.18 2.307 2.325 3.748 3.163 3.606 2.097 7.412 2.28 11.346 1.23 1.138-.302 1.92-1.015 2.071-2.244.167-1.368-.315-2.415-1.565-3.084-.984-.527-2.017-.923-3.068-1.29-4.144-1.451-8.37-2.683-12.347-4.585-2.009-.961-3.96-2.022-5.602-3.564-2.26-2.124-3.385-4.846-3.75-7.834-.64-5.222 1.54-9.213 5.741-12.205 3.415-2.432 7.244-3.733 11.393-4.163.198-.02.391-.081.586-.123z"/><path id="wozvc" d="M220.89 329.558c.483.145.969.277 1.446.436 2.082.69 3.304 2.156 3.756 4.27.258 1.213.284 2.45.267 3.69-.03 2.118-.009 4.235-.009 6.455.575-.33.868-.801 1.217-1.195 2.778-3.136 5.526-6.3 8.31-9.43a12.132 12.132 0 0 1 3.305-2.627c1.699-.921 3.434-.958 5.17-.156 1.929.892 3.397 2.27 4.18 4.282.903 2.323.17 4.374-1.368 6.09-3.214 3.594-6.531 7.095-9.833 10.608-.407.433-.371.71-.065 1.152 3.973 5.726 7.924 11.466 11.896 17.193 1.072 1.546 1.564 3.222 1.225 5.085-.878 4.828-6.486 7.018-10.516 4.13-.92-.66-1.615-1.508-2.242-2.436-3.575-5.294-7.157-10.584-10.74-15.872-.123-.182-.2-.411-.446-.51-.198.246-.101.532-.102.79-.005 3.512.02 7.022-.005 10.532-.013 1.905-.304 3.767-1.08 5.534-.527 1.202-1.396 2.046-2.591 2.52-2.457.976-4.931.969-7.378-.046-1.271-.526-2.174-1.431-2.655-2.747-.63-1.722-1.011-3.481-1.01-5.325.008-11.137.01-22.274-.002-33.41-.001-1.74.36-3.402.857-5.054.599-1.99 1.985-3.098 3.913-3.637.436-.122.879-.216 1.319-.322z"/><path id="wozvd" d="M277.381 352.147c.737-.534 1.38-1.069 2.087-1.498 2.558-1.553 5.345-1.758 8.19-1.148 1.598.342 2.796 1.371 3.568 2.833.22.416.375.504.77.158 1.063-.935 2.181-1.799 3.466-2.422 2.663-1.293 5.395-1.258 8.086-.223 2.508.965 3.265 3.168 3.422 5.603.153 2.38-.31 4.725-.636 7.073-.492 3.548-.975 7.096-1.469 10.643-.25 1.798-.499 3.597-.782 5.391-.263 1.67-.937 2.278-2.62 2.351a38.298 38.298 0 0 1-3.106.002c-1.372-.05-2.059-.813-1.884-2.167.45-3.478.956-6.949 1.431-10.422.431-3.149.852-6.299 1.274-9.448.023-.174.025-.353.03-.53.074-2.363-1.485-3.47-3.724-2.653-1.29.472-2.333 1.288-3.242 2.297-.289.321-.35.722-.393 1.124-.423 3.964-1.036 7.902-1.57 11.851-.334 2.476-.665 4.952-1.02 7.423-.269 1.871-1.046 2.53-2.938 2.537-.833.005-1.666.008-2.5 0-1.713-.019-2.39-.787-2.166-2.496.242-1.825.518-3.645.776-5.468.632-4.472 1.272-8.942 1.883-13.415.084-.62.06-1.263.018-1.89-.09-1.387-.846-2.103-2.239-2.157-.962-.038-1.843.264-2.665.738-.326.187-.61.447-.929.65-1.199.763-1.649 1.855-1.83 3.266-.795 6.18-1.698 12.345-2.58 18.513-.214 1.488-.99 2.182-2.489 2.245a48.736 48.736 0 0 1-3.333.005c-1.169-.033-1.81-.635-1.748-1.82.07-1.33.304-2.652.486-3.976.834-6.073 1.68-12.144 2.506-18.218.192-1.412.163-1.416-1.259-1.416-.934 0-1.87.044-2.802-.014-.698-.044-.933.27-1.015.893-.3 2.276-.585 4.556-.95 6.821-.854 5.304-1.276 10.675-2.424 15.931-.47 2.15-1.078 4.29-2.326 6.131-2.178 3.213-5.276 4.758-9.154 4.62-1.668-.06-2.869-1.21-3.08-2.728-.242-1.726.515-3.066 2.178-3.729 2.22-.884 3.917-2.275 4.687-4.618.38-1.155.653-2.335.825-3.536.752-5.245 1.488-10.492 2.23-15.739.157-1.124.303-2.25.471-3.372.07-.458-.094-.667-.56-.659-.48.008-.96.017-1.439-.014-.962-.062-1.598-.719-1.586-1.68.011-.885.166-1.759.373-2.619.175-.729.706-1.137 1.39-1.374.633-.216 1.29-.258 1.946-.22.553.031.808-.169.896-.745.205-1.349.492-2.684 1.065-3.936 1.571-3.436 4.333-5.284 7.968-5.94 1.997-.363 4.006-.47 6.027-.175 1.318.193 1.992.966 1.85 2.28a26.238 26.238 0 0 1-.438 2.61c-.173.814-.662 1.191-1.513 1.204-1.035.015-2.07-.012-3.106-.014-2.706-.007-3.906 1.864-4.28 4.06-.104.6.3.651.748.651 2.171-.003 4.343 0 6.515 0 .53 0 1.06-.003 1.591 0 2.146.011 2.688.457 3.042 2.575z"/></defs><g><g transform="translate(-113 -329)"><use fill="#fff" xlink:href="#wozva"/></g><g transform="translate(-113 -329)"><use fill="#fff" xlink:href="#wozvb"/></g><g transform="translate(-113 -329)"><use fill="#fff" xlink:href="#wozvc"/></g><g transform="translate(-113 -329)"><use fill="#fff" xlink:href="#wozvd"/></g></g></svg>