<svg xmlns="http://www.w3.org/2000/svg" xmlns:xlink="http://www.w3.org/1999/xlink" width="30" height="17" viewBox="0 0 30 17"><defs><path id="1wsma" d="M205.42 419.524h-4.214l-6.107-15.789h3.835l4.379 12.143 4.356-12.143h3.834z"/><path id="1wsmb" d="M218.581 419.809c-2.81 0-5.035-.837-6.676-2.51l1.822-2.555c1.358 1.419 3.031 2.129 5.02 2.129.867 0 1.542-.168 2.023-.508.482-.34.722-.753.722-1.243 0-.426-.224-.782-.674-1.065-.45-.285-1.01-.49-1.68-.616a21.642 21.642 0 0 1-2.19-.544 18.162 18.162 0 0 1-2.19-.805c-.67-.3-1.23-.773-1.68-1.421-.45-.646-.676-1.435-.676-2.367 0-1.356.545-2.497 1.634-3.421 1.09-.923 2.54-1.384 4.356-1.384 2.508 0 4.56.734 6.154 2.202l-1.87 2.462c-1.246-1.153-2.778-1.728-4.592-1.728-.71 0-1.263.142-1.657.426a1.354 1.354 0 0 0-.592 1.16c0 .378.225.698.675.958.45.26 1.01.454 1.68.58.671.126 1.397.312 2.178.557.781.244 1.507.52 2.178.828.67.307 1.231.789 1.681 1.444.45.654.674 1.44.674 2.356 0 1.514-.54 2.737-1.622 3.669-1.08.93-2.647 1.396-4.698 1.396z"/></defs><g><g transform="translate(-195 -403)"><use fill="#767676" xlink:href="#1wsma"/></g><g transform="translate(-195 -403)"><use fill="#767676" xlink:href="#1wsmb"/></g></g></svg>