<svg xmlns="http://www.w3.org/2000/svg" xmlns:xlink="http://www.w3.org/1999/xlink" width="38" height="50" viewBox="0 0 38 50"><defs><path id="d27ea" d="M284.156 340.805c0-5.657-.126-11.32.032-16.97.216-7.685 4.169-9.985 9.917-5.925a10861.58 10861.58 0 0 1 23.134 16.373c5.909 4.196 5.976 8.518.075 12.783a1333.52 1333.52 0 0 1-23.458 16.588c-5.293 3.655-9.466 1.114-9.666-5.881-.163-5.65-.034-11.312-.034-16.968zm3.02-.594c0 5.797-.037 11.594.013 17.39.043 5.008 1.76 6.109 5.53 3.467a2353.233 2353.233 0 0 0 23.738-16.846c3.449-2.481 3.542-4.46.184-6.906a1369.919 1369.919 0 0 0-24.667-17.538c-3.061-2.126-4.704-1.027-4.77 3.043-.091 5.795-.023 11.593-.027 17.39z"/></defs><g><g transform="translate(-284 -316)"><use fill="#fff" xlink:href="#d27ea"/></g></g></svg>