<svg xmlns="http://www.w3.org/2000/svg" xmlns:xlink="http://www.w3.org/1999/xlink" width="47" height="46" viewBox="0 0 47 46"><defs><path id="9yu1a" d="M117.617 547.515c-6.324 0-12.649-.086-18.97.04-2.747.056-4.072-.626-4.04-3.73.13-13.041.042-26.085.077-39.128.003-1.077-.473-2.811 1.223-2.828 1.715-.02 1.254 1.73 1.258 2.797.043 11.726.152 23.453-.037 35.176-.063 3.834.93 5.33 5.074 5.234 11.588-.27 23.186-.114 34.78-.062 1.17.005 3.177-.651 3.18 1.228.003 1.877-2.01 1.226-3.178 1.239-6.455.07-12.91.034-19.367.034z"/><path id="9yu1b" d="M137.658 524.418c-.006-4.085-.032-8.169.015-12.253.01-.976-.263-2.396 1.281-2.412 1.251-.013 1.191 1.218 1.193 2.112.02 8.432.021 16.865-.004 25.297-.003.894.01 2.079-1.28 2.031-1.269-.046-1.179-1.241-1.185-2.127-.033-4.215-.015-8.432-.02-12.648z"/><path id="9yu1c" d="M132.263 526.75c-.002 3.426.014 6.852-.014 10.276-.007.894.1 2.078-1.138 2.166-1.312.095-1.291-1.102-1.294-1.995-.028-7.114-.028-14.228-.008-21.343.002-.889-.106-2.132 1.135-2.152 1.552-.025 1.293 1.392 1.304 2.377.042 3.557.017 7.114.015 10.671z"/><path id="9yu1d" d="M121.927 529.977c0-2.234-.021-4.47.013-6.705.012-.8.166-1.698 1.213-1.674 1.039.024 1.162.939 1.166 1.73.02 4.733.02 9.466-.007 14.199-.005.795-.171 1.702-1.214 1.679-1.04-.024-1.15-.945-1.16-1.735-.032-2.498-.012-4.996-.011-7.494z"/><path id="9yu1e" d="M108.787 533.981c-.756 1.884.778 5.023-1.334 4.992-2.55-.038-1.164-3.163-1.278-4.892-.1-1.514-.95-4.394 1.02-4.375 2.744.026.492 3.064 1.592 4.275z"/><path id="9yu1f" d="M116.468 536.856c-.157 1.026.122 2.645-1.391 2.317-1.727-.374-.971-2.182-1.04-3.395-.054-.984-.172-2.59 1.336-2.268 1.748.372.827 2.199 1.095 3.346z"/></defs><g><g transform="translate(-94 -502)"><use fill="#fff" xlink:href="#9yu1a"/></g><g transform="translate(-94 -502)"><use fill="#fff" xlink:href="#9yu1b"/></g><g transform="translate(-94 -502)"><use fill="#fff" xlink:href="#9yu1c"/></g><g transform="translate(-94 -502)"><use fill="#fff" xlink:href="#9yu1d"/></g><g transform="translate(-94 -502)"><use fill="#fff" xlink:href="#9yu1e"/></g><g transform="translate(-94 -502)"><use fill="#fff" xlink:href="#9yu1f"/></g></g></svg>