<svg xmlns="http://www.w3.org/2000/svg" xmlns:xlink="http://www.w3.org/1999/xlink" width="51" height="52" viewBox="0 0 51 52"><defs><path id="jnl4a" d="M97.357 363.269c-3.468.11-4.849-.897-4.746-4.572.23-8.15.181-16.313.014-24.466-.06-2.936.79-5.038 3.465-6.235 4.412-1.974 5.935-5.36 5.192-10.016-.55-3.451.838-5.182 4.496-4.664.421.059.867.067 1.285-.001 10.133-1.651 18.464 1.088 24.46 9.82 1.958 2.853 5.697 3.024 8.291 5.07 1.891 1.492 2.797 2.966 2.773 5.355-.087 8.585-.127 17.173.017 25.756.051 3.039-1.104 3.997-4.038 3.936-7.008-.145-14.022-.047-21.034-.047-6.725 0-13.456-.15-20.175.064zm38.468-2.736c2.902.043 4.132-1.131 4.071-4.076-.113-5.565.008-11.135-.057-16.702-.014-1.185.57-2.827-.97-3.395-1.3-.48-2.39.622-3.427 1.35-4.902 3.445-9.915 6.749-14.636 10.427-2.252 1.753-3.835 1.643-5.99.037-5.03-3.744-10.21-7.285-15.316-10.928-2.02-1.441-3.374-1.631-3.358 1.507.033 6.139.093 12.28-.027 18.416-.055 2.786 1.407 3.364 3.735 3.348 5.995-.042 11.992-.015 17.988-.012 5.996 0 11.993-.062 17.987.028zm-26.308-18.397c8.504 4.932 8.09 5.232 16.44-.1 4.092-2.611 5.852-5.631 5.47-10.517-.25-3.185-.856-4.583-4.388-4.471-6.026.19-6.23-.032-6.09-5.962.093-3.932-1.319-5.28-5.257-5.143-12.726.438-11.46-2.178-11.526 11.733-.106 5.503-.986 10.784 5.351 14.46zm25.983-7.46c1.65-.193 3.576-1.116 3.396-3.1-.143-1.588-1.889-2.53-3.456-2.553-1.978-.031-1.22 1.787-1.493 2.912.32 1.052-.517 2.986 1.553 2.742zm-35.587-5.644c-1.435.229-3.27 1.07-3.267 2.78.005 1.746 1.871 2.642 3.318 2.648 1.882.008 1.03-1.89 1.324-2.99-.283-.953.44-2.73-1.375-2.438z"/></defs><g><g transform="translate(-92 -312)"><use fill="#fff" xlink:href="#jnl4a"/></g></g></svg>