<svg xmlns="http://www.w3.org/2000/svg" xmlns:xlink="http://www.w3.org/1999/xlink" width="54" height="53" viewBox="0 0 54 53"><defs><path id="emsna" d="M281.718 538.343c-4.8 1.252-4.795-2.414-5.746-4.48-.858-1.868-2.338-4.097.677-6.074 2.95-1.934 2.999-4.856.09-6.69-3.313-2.088-1.557-4.327-.68-6.41.884-2.097 1.217-4.973 4.995-4.249 3.464.665 5.44-1.284 4.617-4.758-1.006-4.254 2.486-4.06 4.48-5.122 1.916-1.017 4.076-2.41 6.136.44 2.222 3.07 4.883 3.136 6.986.105 1.863-2.684 3.915-1.72 5.71-.72 1.996 1.11 5.538.906 4.723 5.075-.663 3.394 1.437 5.434 4.969 4.966 3.132-.415 3.903 1.873 4.553 3.773.715 2.091 2.846 4.443-.07 6.711-2.961 2.302-2.994 4.891.03 7.151 2.713 2.028 1.413 4.422.383 6.281-1.012 1.826-1.046 5.077-4.922 4.321-3.666-.716-5.571 1.271-4.957 5.09.59 3.674-2.426 3.9-4.56 4.78-1.881.776-3.825 2.14-5.723-.624-2.204-3.21-4.93-3.28-6.9-.11-1.802 2.896-3.821 1.727-5.591.827-2.177-1.109-5.846-.927-5.137-5.228.574-3.485-1.347-5.076-4.063-5.055zm27.339-13.805c.027-4.47-4.75-9.368-9.207-9.443-4.135-.07-9.298 5.057-9.414 9.35-.112 4.142 5.066 9.422 9.23 9.411 4.372-.01 9.366-4.965 9.39-9.318z"/></defs><g><g transform="translate(-273 -498)"><use fill="#fff" fill-opacity="0" stroke="#fff" stroke-miterlimit="50" stroke-width="3" xlink:href="#emsna"/></g></g></svg>