<svg xmlns="http://www.w3.org/2000/svg" xmlns:xlink="http://www.w3.org/1999/xlink" width="113" height="55" viewBox="0 0 113 55"><defs><path id="umtya" d="M137.994 42.227c0 2.643-.004 5.23.006 7.817.001.243-.113.387-.272.539-4.35 4.219-8.703 8.437-13.043 12.666-.275.268-.57.286-.908.286-7.078-.002-14.156.003-21.235-.012-.472-.001-.798.138-1.13.46-6.373 6.207-12.757 12.402-19.14 18.599-.147.142-.303.277-.459.418-.138-.145-.08-.285-.08-.41-.005-2.434.002-4.871-.01-7.306a.946.946 0 0 1 .321-.754 10665.44 10665.44 0 0 0 17.074-16.542c.258-.251.523-.281.846-.281 7.117.003 14.234-.001 21.352.012.43 0 .723-.125 1.025-.418a9521.69 9521.69 0 0 1 15.138-14.69c.134-.13.233-.307.515-.383z"/><path id="umtyb" d="M137.994 28.5c0 2.735-.004 5.305.006 7.875.001.256-.093.424-.272.596-5.72 5.542-11.44 11.086-17.15 16.638-.25.245-.508.3-.838.3-7.079-.007-14.159-.001-21.238-.013-.505-.001-.868.125-1.236.484-5.019 4.896-10.056 9.776-15.09 14.66-.109.105-.227.2-.34.301-.184-.131-.102-.298-.102-.435-.007-2.397.004-4.796-.013-7.193-.003-.361.118-.601.373-.848 4.288-4.145 8.57-8.297 12.84-12.459.28-.271.56-.357.935-.356 7.118.008 14.237.002 21.356.015.431 0 .724-.126 1.026-.419 6.402-6.234 12.815-12.457 19.227-18.681.133-.129.275-.248.516-.465z"/><path id="umtyc" d="M25.56 35.807c0-2.091.01-4.183-.01-6.272-.003-.422.069-.59.564-.584 2.457.028 4.916.02 7.373.002.393-.002.5.104.486.479a28.55 28.55 0 0 0 .002 2.359c.02.424-.135.5-.531.493-1.18-.025-2.361 0-3.54-.015-.32-.005-.435.064-.442.406-.034 1.6-.047 1.6 1.577 1.6.708-.001 1.417.01 2.125-.006.313-.01.406.1.399.398-.02.767-.024 1.535 0 2.3.014.367-.081.5-.483.49-1.062-.028-2.124.003-3.186-.016-.333-.006-.434.09-.43.417.018 1.42-.007 2.839.017 4.259.007.39-.085.53-.512.515a36.62 36.62 0 0 0-2.89.003c-.481.022-.531-.16-.528-.557.019-2.09.009-4.18.009-6.271z"/><path id="umtyd" d="M40.408 32.847c1.717.016 3.339.346 4.535 1.663 1.407 1.55 1.605 3.37.936 5.27-.655 1.858-2.152 2.752-4.056 3.076a8.338 8.338 0 0 1-3.274-.09c-2.534-.58-4.015-2.461-3.933-4.997.083-2.574 1.688-4.378 4.266-4.8.504-.081 1.01-.148 1.526-.122zm-2.142 5.036c-.001.404.037.803.17 1.188.309.899.983 1.39 1.925 1.408.983.017 1.685-.448 2.003-1.373.309-.904.299-1.81-.12-2.684-.36-.757-1.01-1.101-1.841-1.1-.837 0-1.468.367-1.841 1.112-.228.456-.302.946-.296 1.449z"/><path id="umtye" d="M66.291 39.734c-.552 1.567-1.603 2.536-3.153 2.974a7.22 7.22 0 0 1-3.957.005c-2.294-.642-3.663-2.655-3.508-5.107.221-3.519 2.982-5.115 6.32-4.703 3.443.425 4.337 3.153 4.398 5.43.012.427-.27.336-.507.336-2.083.004-4.167.002-6.25.002-.722.001-.73.012-.562.705.2.814.817 1.375 1.666 1.503.723.108 1.788-.123 2.087-.935.056-.15.14-.212.3-.212 1.035.004 2.071.002 3.166.002zm-5.212-2.949c.51 0 1.021-.02 1.53.008.361.02.382-.12.31-.404-.229-.912-.96-1.485-1.912-1.477a1.94 1.94 0 0 0-1.887 1.522c-.07.303.03.363.311.356.548-.015 1.098-.005 1.648-.005z"/><path id="umtyf" d="M111.674 34.199c1.53-1.471 3.221-1.573 4.951-.773 1.815.839 2.546 2.412 2.628 4.304.064 1.482-.358 2.806-1.448 3.876-1.662 1.63-3.965 1.712-6.057.234-.022.025-.065.056-.062.077.12.644-.22.781-.789.709-.479-.062-1.099.204-1.409-.109-.284-.287-.08-.879-.082-1.335-.007-3.873.004-7.745-.014-11.618-.002-.459.088-.666.6-.61a5.87 5.87 0 0 0 1.178.001c.434-.04.517.137.512.523-.02 1.533-.008 3.066-.008 4.721zm5.24 3.677c-.004-.064-.004-.238-.023-.409-.212-1.861-1.888-2.973-3.567-2.369-1.177.423-1.879 1.602-1.792 3.01.087 1.394.737 2.353 1.825 2.691 1.908.592 3.55-.708 3.557-2.923z"/><path id="umtyg" d="M79.064 33.195c-1.146 1.39-2.198 2.694-3.291 3.97-.288.337-.322.55-.037.91 1.042 1.32 2.046 2.668 3.063 4.007.114.148.218.303.387.54-1.355 0-2.62-.004-3.887.001-.252.001-.319-.189-.42-.346-.563-.875-1.124-1.752-1.739-2.714-.46.684-.962 1.295-1.309 1.98-.453.888-1.083 1.206-2.092 1.1-.929-.098-1.876-.02-2.82-.02-.038-.236.145-.327.248-.449 1.182-1.407 2.366-2.816 3.57-4.206.246-.283.275-.46.02-.763-1.077-1.289-2.123-2.604-3.26-4.01 1.087 0 2.082.076 3.058-.02.981-.1 1.573.216 1.95 1.093.2.47.533.886.856 1.408.457-.724.895-1.388 1.3-2.073.173-.296.366-.427.736-.418 1.177.027 2.354.01 3.666.01z"/><path id="umtyh" d="M91.22 32.02c-2.726-2.33-6.01-1.609-7.491-.06-1.84 1.922-1.921 5.293-.164 7.294 1.828 2.084 4.578 2.14 7.657.116 0 .777-.01 1.517.005 2.257.005.25-.163.33-.335.415-4.812 2.412-10.308-.499-10.833-5.372-.352-3.264 1.106-6.166 3.829-7.404 2.242-1.019 4.554-1.018 6.837-.019.358.157.542.363.509.788-.048.626-.013 1.258-.013 1.984z"/><path id="umtyi" d="M98.435 36.593c0-.98.014-1.957-.007-2.935-.008-.345.085-.482.459-.453.41.033.828.034 1.237 0 .45-.038.604.083.595.559a172.883 172.883 0 0 0-.008 5.292c.016 1.247.77 1.92 2.019 1.866.89-.04 1.51-.562 1.674-1.418.134-.703.074-1.415.078-2.123.008-1.227.014-2.455-.005-3.682-.005-.352.053-.53.473-.495.564.047 1.3-.168 1.653.108.375.293.106 1.04.114 1.588.02 1.323-.021 2.647.012 3.969.076 3.012-2.255 4.135-4.401 4.029-2.442-.122-3.83-1.544-3.89-3.947-.02-.786-.002-1.572-.003-2.358z"/><path id="umtyj" d="M51.361 34.286c.887-.979 1.88-1.373 3.073-1.3.377.022.551.123.532.538-.036.822-.01 1.646-.01 2.462-.168.097-.285-.012-.407-.029-1.79-.26-3.042.751-3.08 2.532a102.77 102.77 0 0 0 .002 3.683c.006.343-.078.47-.455.46a44.277 44.277 0 0 0-2.653-.002c-.368.01-.462-.108-.46-.456.013-2.858.012-5.715 0-8.573-.002-.336.111-.42.437-.413.787.021 1.575.034 2.36-.004.463-.02.711.064.618.575-.022.123.02.256.043.527z"/><path id="umtyk" d="M93.515 35.722c0-2.087.012-4.175-.01-6.263-.004-.407.115-.546.526-.5.558.062 1.307-.24 1.63.125.276.313.092 1.02.092 1.554.004 3.812-.008 7.623.015 11.435.003.47-.142.603-.592.553-.54-.058-1.263.228-1.573-.118-.267-.298-.085-.984-.086-1.5-.004-1.762-.002-3.523-.002-5.286z"/></defs><g><g transform="translate(-25 -28)"><use fill="#f16523" xlink:href="#umtya"/></g><g transform="translate(-25 -28)"><use fill="#f16523" xlink:href="#umtyb"/></g><g transform="translate(-25 -28)"><use fill="#fff" xlink:href="#umtyc"/></g><g transform="translate(-25 -28)"><use fill="#fff" xlink:href="#umtyd"/></g><g transform="translate(-25 -28)"><use fill="#fff" xlink:href="#umtye"/></g><g transform="translate(-25 -28)"><use fill="#fff" xlink:href="#umtyf"/></g><g transform="translate(-25 -28)"><use fill="#fff" xlink:href="#umtyg"/></g><g transform="translate(-25 -28)"><use fill="#fff" xlink:href="#umtyh"/></g><g transform="translate(-25 -28)"><use fill="#fff" xlink:href="#umtyi"/></g><g transform="translate(-25 -28)"><use fill="#fff" xlink:href="#umtyj"/></g><g transform="translate(-25 -28)"><use fill="#fff" xlink:href="#umtyk"/></g></g></svg>